<?xml version="1.0" encoding="utf-8"?>
<!-- Generator: Adobe Illustrator 16.0.0, SVG Export Plug-In . SVG Version: 6.00 Build 0)  -->
<!DOCTYPE svg PUBLIC "-//W3C//DTD SVG 1.1//EN" "http://www.w3.org/Graphics/SVG/1.1/DTD/svg11.dtd">
<svg version="1.1" id="Layer_1" xmlns="http://www.w3.org/2000/svg" xmlns:xlink="http://www.w3.org/1999/xlink" x="0px" y="0px"
	 width="169px" height="47.5px" viewBox="0 0 169 47.5" enable-background="new 0 0 169 47.5" xml:space="preserve">
<g>
	<circle fill="#EF4A63" cx="16.64" cy="22.982" r="13.627"/>
	<circle fill="#2F3239" cx="16.64" cy="22.982" r="7.648"/>
	<circle fill="#FFFFFF" cx="16.64" cy="22.981" r="5.367"/>
	<circle fill="#2F3239" cx="16.64" cy="22.981" r="2.612"/>
	<rect x="23.503" y="9.355" fill="#EF4A63" width="3.418" height="5.979"/>
	<g>
		<path fill="#FFFFFF" d="M55.557,13.801h4.745v20.45h-4.745v-2.142c-1.946,1.82-4.039,2.729-6.278,2.729
			c-2.828,0-5.165-1.021-7.013-3.064c-1.834-2.086-2.75-4.689-2.75-7.812c0-3.065,0.917-5.62,2.75-7.664
			c1.833-2.043,4.129-3.065,6.887-3.065c2.379,0,4.514,0.98,6.404,2.939V13.801z M44.345,23.963c0,1.96,0.525,3.557,1.575,4.787
			c1.078,1.246,2.436,1.869,4.073,1.869c1.75,0,3.163-0.602,4.241-1.807c1.078-1.246,1.617-2.826,1.617-4.745
			c0-1.917-0.539-3.499-1.617-4.745c-1.078-1.218-2.478-1.827-4.199-1.827c-1.624,0-2.981,0.616-4.073,1.848
			C44.883,20.59,44.345,22.129,44.345,23.963z"/>
		<path fill="#FFFFFF" d="M69.932,18.21v16.041h-4.724V18.21h-2.016v-4.409h2.016V6.305h4.724v7.496h3.675v4.409H69.932z"/>
		<path fill="#FFFFFF" d="M84.855,30.451l-9.197-16.65h5.48l6.256,11.758l5.838-11.758h5.332L82.272,45.379h-5.396L84.855,30.451z"
			/>
		<path fill="#FFFFFF" d="M106.158,45.379h-4.725V13.801h4.725v2.226c1.861-1.861,3.976-2.792,6.342-2.792
			c2.812,0,5.13,1.036,6.949,3.107c1.848,2.058,2.771,4.654,2.771,7.79c0,3.065-0.918,5.62-2.75,7.664
			c-1.82,2.029-4.115,3.044-6.888,3.044c-2.396,0-4.535-0.958-6.426-2.876L106.158,45.379L106.158,45.379z M117.393,24.152
			c0-1.959-0.533-3.555-1.597-4.787c-1.078-1.246-2.437-1.869-4.073-1.869c-1.734,0-3.143,0.602-4.221,1.806
			c-1.077,1.204-1.615,2.786-1.615,4.745c0,1.918,0.538,3.5,1.615,4.745c1.064,1.218,2.464,1.827,4.199,1.827
			c1.639,0,2.988-0.616,4.053-1.848C116.846,27.54,117.393,26,117.393,24.152z"/>
		<path fill="#FFFFFF" d="M124.396,5.297c0-0.826,0.301-1.54,0.901-2.142c0.603-0.602,1.323-0.903,2.163-0.903
			c0.854,0,1.582,0.301,2.184,0.903c0.603,0.588,0.903,1.309,0.903,2.163s-0.302,1.582-0.903,2.184
			c-0.588,0.602-1.309,0.903-2.162,0.903c-0.854,0-1.582-0.301-2.185-0.903C124.697,6.9,124.396,6.166,124.396,5.297z
			 M129.834,13.801v20.45h-4.725v-20.45H129.834z"/>
		<path fill="#FFFFFF" d="M149.325,14.683v6.278c-1.078-1.315-2.044-2.218-2.897-2.708c-0.84-0.504-1.826-0.756-2.96-0.756
			c-1.778,0-3.255,0.623-4.431,1.869c-1.176,1.246-1.764,2.807-1.764,4.682c0,1.918,0.566,3.493,1.699,4.724
			c1.148,1.232,2.611,1.849,4.389,1.849c1.135,0,2.136-0.245,3.002-0.735c0.841-0.476,1.828-1.398,2.962-2.771v6.236
			c-1.919,0.993-3.835,1.49-5.753,1.49c-3.163,0-5.809-1.021-7.938-3.064c-2.128-2.059-3.191-4.612-3.191-7.665
			c0-3.051,1.078-5.627,3.233-7.727c2.155-2.1,4.802-3.149,7.937-3.149C145.63,13.234,147.533,13.717,149.325,14.683z"/>
		<path fill="#FFFFFF" d="M164.928,17.286l-3.906,2.079c-0.615-1.26-1.379-1.89-2.287-1.89c-0.436,0-0.807,0.144-1.113,0.43
			c-0.309,0.287-0.462,0.655-0.462,1.103c0,0.784,0.909,1.561,2.729,2.331c2.506,1.078,4.191,2.072,5.061,2.981
			c0.867,0.91,1.301,2.135,1.301,3.674c0,1.974-0.729,3.625-2.184,4.955c-1.414,1.26-3.121,1.89-5.123,1.89
			c-3.43,0-5.857-1.673-7.285-5.019l4.031-1.868c0.56,0.979,0.985,1.603,1.281,1.868c0.572,0.533,1.26,0.799,2.057,0.799
			c1.596,0,2.395-0.729,2.395-2.184c0-0.84-0.615-1.625-1.848-2.353c-0.477-0.237-0.952-0.469-1.428-0.692
			c-0.478-0.225-0.959-0.455-1.449-0.693c-1.372-0.672-2.338-1.344-2.897-2.016c-0.714-0.854-1.071-1.953-1.071-3.296
			c0-1.777,0.609-3.247,1.828-4.409c1.246-1.162,2.758-1.743,4.534-1.743C161.707,13.234,163.652,14.585,164.928,17.286z"/>
	</g>
	<rect x="101.439" y="41.042" fill="#FFFFFF" width="64.582" height="4.333"/>
</g>
</svg>
