<?xml version="1.0" encoding="utf-8"?>
<!-- Generator: Adobe Illustrator 16.0.0, SVG Export Plug-In . SVG Version: 6.00 Build 0)  -->
<!DOCTYPE svg PUBLIC "-//W3C//DTD SVG 1.1//EN" "http://www.w3.org/Graphics/SVG/1.1/DTD/svg11.dtd">
<svg version="1.1" id="Layer_1" xmlns="http://www.w3.org/2000/svg" xmlns:xlink="http://www.w3.org/1999/xlink" x="0px" y="0px"
	 width="300px" height="500px" viewBox="0 0 300 500" enable-background="new 0 0 300 500" xml:space="preserve">
<circle fill="#B69C7E" cx="149.999" cy="35.25" r="9.428"/>
<g>
	<path fill="#877362" d="M42.567,419.68c25.843,0,101.602,0,108.051,0c0.289,0,0.448,0,0.448,0c6.449,0,82.209,0,108.053,0
		c13.5-11,12-23.5,10.5-32.5s-47-37.5-47-37.5h-13.5c0,0,2.438-7.186,2.515-18.5h12.21c8.284,0,15-6.717,15-15v-4
		c0-8.285-6.716-15-15-15h-19.225c-12.5-29-15.5-32-16-84.5c-0.107-11.267,0.156-21.932,0.736-32h8.237c8.284,0,15-6.716,15-15
		c0-8.284-6.716-15-15-15h-5.376c3.122-22.861,8.045-41.666,13.901-56.383c10.5-26.383,2.5-26.117,2.5-26.117h-50.275v-5.535h11.388
		c2.129,0,3.854-1.726,3.854-3.854V46.069c0-2.128-1.726-3.854-3.854-3.854h-37.775c-2.128,0-3.854,1.726-3.854,3.854V58.79
		c0,2.128,1.726,3.854,3.854,3.854h11.388v5.535H93.067c0,0-8-0.266,2.5,26.117c5.857,14.717,10.779,33.522,13.901,56.383h-5.376
		c-8.284,0-15,6.716-15,15c0,8.284,6.716,15,15,15h8.238c0.58,10.068,0.844,20.733,0.736,32c-0.5,52.5-3.5,55.5-16,84.5H77.842
		c-8.284,0-15,6.715-15,15v4c0,8.282,6.716,15,15,15h12.21c0.077,11.313,2.515,18.5,2.515,18.5h-13.5c0,0-45.5,28.5-47,37.5
		S29.067,408.68,42.567,419.68z"/>
	<path fill="#877362" d="M275.223,438.68H26.462c-8.284,0-15,6.715-15,15v1.5c0,8.283,6.716,15,15,15h248.761
		c8.283,0,15-6.717,15-15v-1.5C290.223,445.395,283.507,438.68,275.223,438.68z"/>
</g>
<path fill="#B69C7E" d="M226.848,340.43c0,5.229-4.24,9.469-9.47,9.469H84.307c-5.229,0-9.469-4.239-9.469-9.469l0,0
	c0-5.229,4.239-9.469,9.469-9.469h133.071C222.607,330.961,226.848,335.199,226.848,340.43L226.848,340.43z"/>
<path fill="#B69C7E" d="M281.093,429.18c0,5.246-4.253,9.5-9.5,9.5h-241.5c-5.247,0-9.5-4.254-9.5-9.5l0,0
	c0-5.248,4.253-9.5,9.5-9.5h241.5C276.84,419.68,281.093,423.932,281.093,429.18L281.093,429.18z"/>
<ellipse fill="#B69C7E" cx="150.843" cy="115" rx="4.214" ry="11"/>
</svg>
