<?xml version="1.0" encoding="utf-8"?>
<!-- Generator: Adobe Illustrator 16.0.0, SVG Export Plug-In . SVG Version: 6.00 Build 0)  -->
<!DOCTYPE svg PUBLIC "-//W3C//DTD SVG 1.1//EN" "http://www.w3.org/Graphics/SVG/1.1/DTD/svg11.dtd">
<svg version="1.1" id="Layer_1" xmlns="http://www.w3.org/2000/svg" xmlns:xlink="http://www.w3.org/1999/xlink" x="0px" y="0px"
	 width="300px" height="400px" viewBox="0 0 300 400" enable-background="new 0 0 300 400" xml:space="preserve">
<g>
	<path fill="#877363" d="M267.606,360.995H32.6c-7.826,0-14.171,6.344-14.171,14.17v1.417c0,7.826,6.345,14.172,14.171,14.172
		h235.007c7.826,0,14.171-6.346,14.171-14.172v-1.417C281.777,367.339,275.433,360.995,267.606,360.995z"/>
	<path fill="#877363" d="M47.813,343.045c24.415,0,95.985,0,102.078,0c0.273,0,0.424,0,0.424,0c6.092,0,77.665,0,102.078,0
		c12.754-10.392,11.337-22.201,9.92-30.703s-44.401-35.427-44.401-35.427h-12.754c0,0,7.558-22.2-4.251-49.598
		c-5.551-12.878-9.118-20.328-11.39-29.758c0,0-6.878-35.862-11.599-67.485c21.19-10.321,35.796-32.061,35.796-57.217
		c0-35.132-28.479-63.611-63.611-63.611c-35.132,0-63.611,28.479-63.611,63.611c0,25.12,14.563,46.832,35.705,57.17
		c-4.72,31.635-11.604,67.532-11.604,67.532h0.098c-2.272,9.43-5.84,16.88-11.39,29.758c-11.809,27.397-4.251,49.598-4.251,49.598
		H82.296c0,0-42.984,26.925-44.402,35.427C36.477,320.844,35.06,332.653,47.813,343.045z"/>
</g>
<path fill="#B69C7E" d="M221.906,268.176c0,4.94-4.005,8.945-8.945,8.945H87.246c-4.94,0-8.945-4.005-8.945-8.945l0,0
	c0-4.94,4.005-8.945,8.945-8.945h125.715C217.901,259.23,221.906,263.235,221.906,268.176L221.906,268.176z"/>
<path fill="#B69C7E" d="M273.152,352.02c0,4.957-4.018,8.976-8.975,8.976H36.029c-4.957,0-8.975-4.019-8.975-8.976l0,0
	c0-4.957,4.019-8.975,8.975-8.975h228.149C269.135,343.045,273.152,347.063,273.152,352.02L273.152,352.02z"/>
</svg>
